{
    "asset" : {
        "generator" : "Khronos glTF Blender I/O v0.9.21",
        "version" : "2.0"
    },
    "scene" : 0,
    "scenes" : [
        {
            "nodes" : [
                0,
                1,
                2,
                3
            ],
            "name" : "Scene"
        }
    ],
    "nodes" : [
        {
            "scale" : [
                1.0031462907791138,
                1.0031462907791138,
                1.0031462907791138
            ],
            "rotation" : [
                0.032373759895563126,
                -0.628426730632782,
                0.04171337932348251,
                -0.7760745882987976
            ],
            "mesh" : 0,
            "name" : "20819_Number_9_v1"
        },
        {
            "mesh" : 1,
            "name" : "Cube"
        },
        {
            "rotation" : [
                0.16907575726509094,
                0.7558803558349609,
                -0.27217137813568115,
                0.570947527885437
            ],
            "translation" : [
                4.076245307922363,
                5.903861999511719,
                -1.0054539442062378
            ],
            "name" : "Lamp"
        },
        {
            "rotation" : [
                0.483536034822464,
                0.33687159419059753,
                -0.20870360732078552,
                0.7804827094078064
            ],
            "translation" : [
                7.481131553649902,
                5.34366512298584,
                6.5076398849487305
            ],
            "name" : "Camera"
        }
    ],
    "materials" : [
        {
            "pbrMetallicRoughness" : {},
            "name" : "Material.001"
        },
        {
            "pbrMetallicRoughness" : {},
            "name" : "Material"
        }
    ],
    "meshes" : [
        {
            "primitives" : [
                {
                    "indices" : 3,
                    "material" : 0,
                    "attributes" : {
                        "NORMAL" : 0,
                        "TEXCOORD_0" : 1,
                        "POSITION" : 2
                    }
                }
            ],
            "name" : "20819_Number_9_v1"
        },
        {
            "primitives" : [
                {
                    "indices" : 6,
                    "material" : 1,
                    "attributes" : {
                        "NORMAL" : 4,
                        "POSITION" : 5
                    }
                }
            ],
            "name" : "Cube"
        }
    ],
    "accessors" : [
        {
            "componentType" : 5126,
            "type" : "VEC3",
            "count" : 7578,
            "bufferView" : 0
        },
        {
            "componentType" : 5126,
            "type" : "VEC2",
            "count" : 7578,
            "bufferView" : 1
        },
        {
            "componentType" : 5126,
            "count" : 7578,
            "bufferView" : 2,
            "min" : [
                -3.8784000873565674,
                0.0015999999595806003,
                -0.9919000267982483
            ],
            "type" : "VEC3",
            "max" : [
                3.8592000007629395,
                12.920999526977539,
                0.9919000267982483
            ]
        },
        {
            "componentType" : 5123,
            "type" : "SCALAR",
            "count" : 43392,
            "bufferView" : 3
        },
        {
            "componentType" : 5126,
            "type" : "VEC3",
            "count" : 24,
            "bufferView" : 4
        },
        {
            "componentType" : 5126,
            "count" : 24,
            "bufferView" : 5,
            "min" : [
                -1.0000003576278687,
                -1,
                -1.0000003576278687
            ],
            "type" : "VEC3",
            "max" : [
                1.0000004768371582,
                1,
                1.0000005960464478
            ]
        },
        {
            "componentType" : 5123,
            "type" : "SCALAR",
            "count" : 36,
            "bufferView" : 6
        }
    ],
    "bufferViews" : [
        {
            "byteOffset" : 0,
            "buffer" : 0,
            "byteLength" : 90936
        },
        {
            "byteOffset" : 90936,
            "buffer" : 0,
            "byteLength" : 60624
        },
        {
            "byteOffset" : 151560,
            "buffer" : 0,
            "byteLength" : 90936
        },
        {
            "byteOffset" : 242496,
            "buffer" : 0,
            "byteLength" : 86784
        },
        {
            "byteOffset" : 329280,
            "buffer" : 0,
            "byteLength" : 288
        },
        {
            "byteOffset" : 329568,
            "buffer" : 0,
            "byteLength" : 288
        },
        {
            "byteOffset" : 329856,
            "buffer" : 0,
            "byteLength" : 72
        }
    ],
    "buffers" : [
        {
            "uri" : "figure.bin",
            "byteLength" : 329928
        }
    ]
}
